<?xml version="1.0" encoding="UTF-8"?>
<svg id="Capa_1" xmlns="http://www.w3.org/2000/svg" version="1.1" viewBox="0 0 500 500">
  <!-- Generator: Adobe Illustrator 29.2.1, SVG Export Plug-In . SVG Version: 2.1.0 Build 116)  -->
  <defs>
    <style>
      .st0 {
        fill: #252525;
      }
    </style>
  </defs>
  <path class="st0" d="M404.14,90.08c.76-.89-.38-2.13-1.34-1.47l-64.81,45.15c-1.36.95-2.93,1.44-4.56,1.44h0c-4.41,0-8.02-3.61-8.02-8.02V40.7c0-1.06-1.44-1.4-1.89-.44-5.72,11.94-14.38,22.45-25.4,30.42v84.31c0,4.24-2.07,8.22-5.54,10.65l-16.22,11.35c-1.07.75-2.29,1.29-3.58,1.46-5.14.71-9.14-3.48-9.14-8.26v-78.73c0-.81-.91-1.28-1.57-.82l-11.67,8.1c-.34.24-.8.24-1.14,0l-11.33-7.9c-.66-.46-1.57.01-1.57.82v78.53c0,4.07-2.89,7.71-6.91,8.27-2.01.28-4.01-.21-5.67-1.38l-16.35-11.45c-3.47-2.43-5.54-6.41-5.54-10.65v-84.3c-11.04-8.02-19.7-18.6-25.4-30.62-.45-.96-1.9-.62-1.9.44v86.38c0,4.06-2.88,7.7-6.9,8.26-2.01.28-4.01-.21-5.67-1.37l-64.81-45.15c-.96-.67-2.09.57-1.34,1.47l14.96,17.71c3.05,3.61,4.72,8.18,4.72,12.91v163.03c0,40.36,10.22,79.53,29.71,114.46.54.97,2.04.47,1.87-.64-.54-3.54-1.11-7.47-1.68-11.72-2.41-18-5.29-45.72-5.29-75.53v-146.02c0-4.06,2.89-7.7,6.91-8.26,2.02-.28,4.01.21,5.68,1.38l16.29,11.41c3.47,2.43,5.54,6.41,5.54,10.65v174.05c0,37.67,10.13,74.18,29.39,106.31.57.95,2.03.42,1.85-.67-2.06-12.73-3.94-31.3-3.94-56.69v-194.95c0-4.07,2.89-7.71,6.92-8.27,2.01-.28,4.01.22,5.67,1.38l16.35,11.45c3.47,2.43,5.54,6.41,5.54,10.65v130.79c0,24.55,4.27,48.52,12.7,71.39.32.87,1.57.87,1.89,0,8.43-22.88,12.7-46.85,12.7-71.39v-130.79c0-4.24,2.07-8.22,5.54-10.65l16.22-11.35c1.07-.75,2.29-1.29,3.58-1.47,5.14-.72,9.14,3.48,9.14,8.26v194.95c0,25.39-1.88,43.95-3.94,56.69-.18,1.09,1.29,1.61,1.85.67,19.26-32.12,29.38-68.63,29.38-106.3v-174.05c0-4.24,2.07-8.22,5.54-10.65l16.16-11.32c1.07-.75,2.29-1.29,3.58-1.47,5.14-.72,9.14,3.47,9.14,8.26v146.02c0,29.87-2.87,57.56-5.28,75.53-.57,4.25-1.14,8.17-1.69,11.71-.17,1.1,1.33,1.61,1.87.64,19.49-34.93,29.7-74.1,29.7-114.46V120.69c0-4.73,1.67-9.3,4.72-12.91l14.96-17.71Z"/>
</svg>